<svg width="1000" height="1000" viewBox="0 0 1000 1000" xmlns="http://www.w3.org/2000/svg"><defs/><path fill="#543220" transform="matrix(0.7037218083784959 0 0 0.7037218083784959 21.983841818315604 -147.48232098195112)" d="M 376.11301826592 750.08278452229 L 376.11301826592 866.68278452229 L 493.71301826592 866.68278452229 C 496.01301826592 866.68278452229 498.11301826592 867.68278452229 499.61301826592 869.38278452229 C 501.11301826592 871.08278452229 501.71301826592 873.38278452229 501.31301826592 875.68278452229 L 482.21301826592 990.38278452229 C 481.71301826592 993.68278452229 479.11301826592 996.28278452229 475.81301826592 996.78278452229 C 474.91301826592 996.88278452229 424.81301826592 1004.78278452229 376.11301826592 1012.48278452229 L 376.11301826592 1051.68278452229 L 488.61301826592 1051.68278452229 C 492.91301826592 1051.68278452229 496.41301826592 1055.18278452229 496.41301826592 1059.48278452229 C 496.41301826592 1063.78278452229 492.91301826592 1067.28278452229 488.61301826592 1067.28278452229 L 463.81301826592 1067.28278452229 C 468.61301826592 1074.88278452229 467.61301826592 1086.08278452229 460.71301826592 1094.48278452229 C 455.71301826592 1100.48278452229 448.61301826592 1104.18278452229 441.61301826592 1104.18278452229 C 437.21301826592 1104.18278452229 433.11301826592 1102.78278452229 429.91301826592 1100.08278452229 C 421.31301826592 1092.98278452229 421.01301826592 1078.88278452229 429.41301826592 1068.78278452229 C 429.81301826592 1068.28278452229 430.21301826592 1067.78278452229 430.71301826592 1067.38278452229 L 376.21301826592 1067.38278452229 L 376.21301826592 1124.28278452229 L 531.21301826592 1124.28278452229 L 556.11301826592 782.68278452229 L 376.11301826592 750.08278452229 Z"/><path fill="#de156b" transform="matrix(0.7037218083784959 0 0 0.7037218083784959 21.983841818315604 -147.48232098195112)" d="M 286.81301826592 1026.48278452229 C 281.01301826592 1027.38278452229 278.51301826592 1033.58278452229 278.91301826592 1039.08278452229 C 279.11301826592 1041.98278452229 280.91301826592 1051.58278452229 294.31301826592 1051.58278452229 L 359.31301826592 1051.58278452229 L 359.31301826592 1014.98278452229 C 325.11301826592 1020.48278452229 294.71301826592 1025.28278452229 286.81301826592 1026.48278452229 Z"/><path fill="#de156b" transform="matrix(0.7037218083784959 0 0 0.7037218083784959 21.983841818315604 -147.48232098195112)" d="M 344.51301826592 1094.38278452229 C 339.51301826592 1100.38278452229 332.41301826592 1104.08278452229 325.41301826592 1104.08278452229 C 321.01301826592 1104.08278452229 316.91301826592 1102.68278452229 313.71301826592 1099.98278452229 C 305.11301826592 1092.88278452229 304.81301826592 1078.78278452229 313.21301826592 1068.68278452229 C 313.61301826592 1068.18278452229 314.01301826592 1067.68278452229 314.51301826592 1067.28278452229 L 294.41301826592 1067.28278452229 C 274.51301826592 1067.28278452229 264.61301826592 1053.78278452229 263.51301826592 1040.48278452229 C 262.51301826592 1027.68278452229 269.31301826592 1016.38278452229 279.91301826592 1012.48278452229 L 238.21301826592 807.28278452229 L 199.71301826592 801.28278452229 C 195.51301826592 800.58278452229 192.61301826592 796.68278452229 193.21301826592 792.48278452229 C 193.91301826592 788.28278452229 197.81301826592 785.38278452229 202.01301826592 785.98278452229 L 245.81301826592 792.68278452229 C 249.01301826592 793.18278452229 251.61301826592 795.58278452229 252.21301826592 798.78278452229 L 266.01301826592 866.58278452229 L 359.31301826592 866.58278452229 L 359.31301826592 715.88278452229 L 181.91301826592 750.68278452229 L 181.91301826592 1123.98278452229 L 359.41301826592 1123.98278452229 L 359.41301826592 1067.08278452229 L 347.71301826592 1067.08278452229 C 352.51301826592 1074.78278452229 351.51301826592 1085.88278452229 344.51301826592 1094.38278452229 Z"/><path fill="#de156b" transform="matrix(0.7037218083784959 0 0 0.7037218083784959 21.983841818315604 -147.48232098195112)" d="M 416.91301826592 968.68278452229 L 425.51301826592 956.18278452229 L 436.31301826592 971.48278452229 C 436.71301826592 972.08278452229 437.51301826592 972.18278452229 438.11301826592 971.78278452229 L 443.51301826592 967.98278452229 C 444.11301826592 967.58278452229 444.21301826592 966.78278452229 443.81301826592 966.18278452229 L 433.01301826592 950.88278452229 L 447.71301826592 946.98278452229 C 448.91301826592 946.68278452229 449.01301826592 945.88278452229 448.01301826592 945.28278452229 L 405.51301826592 918.28278452229 C 404.51301826592 917.68278452229 403.91301826592 918.08278452229 404.21301826592 919.28278452229 L 415.31301826592 968.38278452229 C 415.51301826592 969.48278452229 416.21301826592 969.58278452229 416.91301826592 968.68278452229 Z"/><path id="text" fill="#543220" transform="matrix(1.3704508399222635 0 0 1.3704508399222635 335.38383377823504 -23.056573823965124)" d="M 105.42226563806 387.50752034216 L 85.07026563806 387.50752034216 C 77.39026563806 387.50752034216 71.83826563806 386.01952034216 68.41426563806 383.04352034216 C 64.99026563806 380.06752034216 63.27826563806 375.21952034216 63.27826563806 368.49952034216 L 63.27826563806 319.15552034216 L 76.62226563806 319.15552034216 L 76.62226563806 368.49952034216 C 76.62226563806 371.18752034216 77.23026563806 373.04352034216 78.44626563806 374.06752034216 C 79.66226563806 375.09152034216 81.87026563806 375.60352034216 85.07026563806 375.60352034216 L 105.42226563806 375.60352034216 L 105.42226563806 387.50752034216 Z M 152.84626563806 387.50752034216 L 144.49426563806 387.50752034216 L 140.65426563806 380.88352034216 L 127.31026563806 388.08352034216 C 119.88626563806 388.08352034216 114.89426563806 385.39552034216 112.33426563806 380.01952034216 C 111.05426563806 377.39552034216 110.17426563806 374.56352034216 109.69426563806 371.52352034216 C 109.21426563806 368.48352034216 108.97426563806 365.31552034216 108.97426563806 362.01952034216 C 108.97426563806 358.72352034216 109.00626563806 356.29152034216 109.07026563806 354.72352034216 C 109.13426563806 353.15552034216 109.29426563806 351.33152034216 109.55026563806 349.25152034216 C 109.80626563806 347.17152034216 110.17426563806 345.42752034216 110.65426563806 344.01952034216 C 111.13426563806 342.61152034216 111.82226563806 341.15552034216 112.71826563806 339.65152034216 C 113.61426563806 338.14752034216 114.70226563806 336.94752034216 115.98226563806 336.05152034216 C 118.86226563806 334.06752034216 122.60626563806 333.07552034216 127.21426563806 333.07552034216 L 140.36626563806 333.07552034216 L 152.84626563806 332.30752034216 L 152.84626563806 387.50752034216 Z M 140.36626563806 370.03552034216 L 140.36626563806 344.30752034216 L 130.86226563806 344.30752034216 C 127.34226563806 344.30752034216 124.89426563806 345.65152034216 123.51826563806 348.33952034216 C 122.14226563806 351.02752034216 121.45426563806 355.04352034216 121.45426563806 360.38752034216 C 121.45426563806 365.73152034216 122.11026563806 369.49152034216 123.42226563806 371.66752034216 C 124.73426563806 373.84352034216 127.21426563806 374.93152034216 130.86226563806 374.93152034216 L 140.36626563806 370.03552034216 Z M 210.15826563806 358.61152034216 C 210.15826563806 372.88352034216 206.47826563806 382.00352034216 199.11826563806 385.97152034216 C 196.11026563806 387.57152034216 192.43026563806 388.37152034216 188.07826563806 388.37152034216 L 178.86226563806 382.41952034216 L 178.86226563806 403.82752034216 L 166.38226563806 403.82752034216 L 166.38226563806 333.07552034216 L 190.95826563806 333.07552034216 C 198.38226563806 333.07552034216 203.43826563806 335.17152034216 206.12626563806 339.36352034216 C 208.81426563806 343.55552034216 210.15826563806 349.97152034216 210.15826563806 358.61152034216 Z M 197.67826563806 360.53152034216 C 197.67826563806 349.71552034216 194.22226563806 344.30752034216 187.31026563806 344.30752034216 L 178.86226563806 344.30752034216 L 178.86226563806 369.74752034216 L 187.31026563806 375.21952034216 C 191.02226563806 375.21952034216 193.67826563806 374.05152034216 195.27826563806 371.71552034216 C 196.87826563806 369.37952034216 197.67826563806 365.65152034216 197.67826563806 360.53152034216 Z M 263.91826563806 358.61152034216 C 263.91826563806 372.88352034216 260.23826563806 382.00352034216 252.87826563806 385.97152034216 C 249.87026563806 387.57152034216 246.19026563806 388.37152034216 241.83826563806 388.37152034216 L 232.62226563806 382.41952034216 L 232.62226563806 403.82752034216 L 220.14226563806 403.82752034216 L 220.14226563806 333.07552034216 L 244.71826563806 333.07552034216 C 252.14226563806 333.07552034216 257.19826563806 335.17152034216 259.88626563806 339.36352034216 C 262.57426563806 343.55552034216 263.91826563806 349.97152034216 263.91826563806 358.61152034216 Z M 251.43826563806 360.53152034216 C 251.43826563806 349.71552034216 247.98226563806 344.30752034216 241.07026563806 344.30752034216 L 232.62226563806 344.30752034216 L 232.62226563806 369.74752034216 L 241.07026563806 375.21952034216 C 244.78226563806 375.21952034216 247.43826563806 374.05152034216 249.03826563806 371.71552034216 C 250.63826563806 369.37952034216 251.43826563806 365.65152034216 251.43826563806 360.53152034216 Z M 286.09426563806 313.15552034216 C 286.99026563806 314.08352034216 287.43826563806 316.03552034216 287.43826563806 319.01152034216 C 287.43826563806 321.98752034216 286.97426563806 323.93952034216 286.04626563806 324.86752034216 C 285.11826563806 325.79552034216 283.16626563806 326.25952034216 280.19026563806 326.25952034216 C 277.21426563806 326.25952034216 275.26226563806 325.77952034216 274.33426563806 324.81952034216 C 273.40626563806 323.85952034216 272.94226563806 321.90752034216 272.94226563806 318.96352034216 C 272.94226563806 316.01952034216 273.40626563806 314.08352034216 274.33426563806 313.15552034216 C 275.26226563806 312.22752034216 277.23026563806 311.76352034216 280.23826563806 311.76352034216 C 283.24626563806 311.76352034216 285.19826563806 312.22752034216 286.09426563806 313.15552034216 Z M 286.38226563806 387.50752034216 L 273.90226563806 387.50752034216 L 273.90226563806 334.70752034216 L 286.38226563806 334.70752034216 L 286.38226563806 387.50752034216 Z M 341.39026563806 363.02752034216 L 309.42226563806 363.02752034216 C 309.42226563806 368.01952034216 310.20626563806 371.66752034216 311.77426563806 373.97152034216 C 313.34226563806 376.27552034216 316.49426563806 377.42752034216 321.23026563806 377.42752034216 C 324.30226563806 377.42752034216 326.57426563806 376.45152034216 328.04626563806 374.49952034216 C 329.51826563806 372.54752034216 330.25426563806 370.67552034216 330.25426563806 368.88352034216 L 341.48626563806 368.88352034216 C 341.48626563806 375.73152034216 339.64626563806 380.75552034216 335.96626563806 383.95552034216 C 332.28626563806 387.15552034216 327.42226563806 388.75552034216 321.37426563806 388.75552034216 C 315.32626563806 388.75552034216 310.63826563806 387.89152034216 307.31026563806 386.16352034216 C 300.46226563806 382.64352034216 297.03826563806 373.29952034216 297.03826563806 358.13152034216 C 297.03826563806 349.10752034216 298.99026563806 342.49952034216 302.89426563806 338.30752034216 C 306.79826563806 334.11552034216 312.75026563806 332.01952034216 320.75026563806 332.01952034216 C 334.63826563806 332.01952034216 341.58226563806 339.73152034216 341.58226563806 355.15552034216 C 341.58226563806 356.81952034216 341.51826563806 359.44352034216 341.39026563806 363.02752034216 Z M 309.71026563806 354.48352034216 L 330.25426563806 354.48352034216 C 330.25426563806 350.25952034216 329.45426563806 347.18752034216 327.85426563806 345.26752034216 C 326.25426563806 343.34752034216 323.80626563806 342.38752034216 320.51026563806 342.38752034216 C 317.21426563806 342.38752034216 314.59026563806 343.36352034216 312.63826563806 345.31552034216 C 310.68626563806 347.26752034216 309.71026563806 350.32352034216 309.71026563806 354.48352034216 Z"/><path id="text" fill="#de156b" transform="matrix(0.5481803359689054 0 0 0.5481803359689054 343.77757108259095 54.63592883223589)" d="M 192.03566409514 965.50480085541 C 188.06766409514 968.19280085541 182.62766409514 969.53680085541 175.71566409514 969.53680085541 C 165.98766409514 969.53680085541 158.08366409514 966.54480085541 152.00366409514 960.56080085541 C 145.92366409514 954.57680085541 142.88366409514 946.43280085541 142.88366409514 936.12880085541 C 142.88366409514 926.40080085541 145.97166409514 918.48080085541 152.14766409514 912.36880085541 C 158.32366409514 906.25680085541 166.08366409514 903.20080085541 175.42766409514 903.20080085541 C 182.14766409515 903.20080085541 187.61966409514 904.35280085541 191.84366409514 906.65680085541 L 191.84366409514 914.62480085541 C 189.02766409515 913.15280085541 186.49966409514 912.09680085541 184.25966409515 911.45680085541 C 182.01966409514 910.81680085541 179.07566409515 910.49680085541 175.42766409514 910.49680085541 C 168.45166409514 910.49680085541 162.64366409514 912.86480085541 158.00366409514 917.60080085541 C 153.36366409514 922.33680085541 151.04366409514 928.51280085541 151.04366409514 936.12880085541 C 151.04366409514 944.06480085541 153.34766409514 950.40080085541 157.95566409514 955.13680085541 C 162.56366409514 959.87280085541 168.67566409514 962.24080085541 176.29166409514 962.24080085541 C 182.43566409514 962.24080085541 187.68366409515 960.60880085541 192.03566409514 957.34480085541 L 192.03566409514 965.50480085541 Z M 246.27566409514 968.76880085541 L 238.69166409514 968.76880085541 L 238.69166409514 937.28080085541 C 238.69166409514 933.76080085541 237.77966409515 931.04080085541 235.95566409515 929.12080085541 C 234.13166409514 927.20080085541 231.74766409514 926.24080085541 228.80366409515 926.24080085541 C 225.21966409515 926.24080085541 222.08366409514 927.61680085541 219.39566409514 930.36880085541 C 216.70766409515 933.12080085541 215.36366409514 937.05680085541 215.36366409514 942.17680085541 L 215.36366409514 968.76880085541 L 207.87566409514 968.76880085541 L 207.87566409514 900.89680085541 L 215.36366409514 900.89680085541 L 215.36366409514 928.54480085541 C 218.24366409515 922.46480085541 223.36366409514 919.42480085541 230.72366409514 919.42480085541 C 235.39566409514 919.42480085541 239.15566409514 920.86480085541 242.00366409515 923.74480085541 C 244.85166409514 926.62480085541 246.27566409514 930.52880085541 246.27566409514 935.45680085541 L 246.27566409514 968.76880085541 Z M 307.33166409515 944.57680085541 C 307.33166409515 951.80880085541 305.28366409515 957.79280085541 301.18766409515 962.52880085541 C 297.09166409515 967.26480085541 291.45966409514 969.63280085541 284.29166409514 969.63280085541 C 277.31566409514 969.63280085541 271.79566409514 967.28080085541 267.73166409515 962.57680085541 C 263.66766409514 957.87280085541 261.63566409515 951.93680085541 261.63566409515 944.76880085541 C 261.63566409515 937.53680085541 263.73166409515 931.50480085541 267.92366409515 926.67280085541 C 272.11566409515 921.84080085541 277.57166409514 919.42480085541 284.29166409514 919.42480085541 C 291.65166409514 919.42480085541 297.33166409515 921.79280085541 301.33166409515 926.52880085541 C 305.33166409515 931.26480085541 307.33166409515 937.28080085541 307.33166409515 944.57680085541 Z M 269.50766409514 944.67280085541 C 269.50766409514 949.72880085541 270.85166409515 954.03280085541 273.53966409515 957.58480085541 C 276.22766409514 961.13680085541 279.81166409514 962.91280085541 284.29166409514 962.91280085541 C 289.15566409514 962.91280085541 292.89966409515 961.16880085541 295.52366409514 957.68080085541 C 298.14766409515 954.19280085541 299.45966409514 949.85680085541 299.45966409514 944.67280085541 C 299.45966409514 939.29680085541 298.21166409515 934.86480085541 295.71566409514 931.37680085541 C 293.21966409514 927.88880085541 289.41166409514 926.14480085541 284.29166409514 926.14480085541 C 279.68366409515 926.14480085541 276.06766409515 927.93680085541 273.44366409515 931.52080085541 C 270.81966409514 935.10480085541 269.50766409514 939.48880085541 269.50766409514 944.67280085541 Z M 366.08366409515 944.57680085541 C 366.08366409515 951.80880085541 364.03566409515 957.79280085541 359.93966409515 962.52880085541 C 355.84366409514 967.26480085541 350.21166409515 969.63280085541 343.04366409515 969.63280085541 C 336.06766409515 969.63280085541 330.54766409514 967.28080085541 326.48366409514 962.57680085541 C 322.41966409515 957.87280085541 320.38766409514 951.93680085541 320.38766409514 944.76880085541 C 320.38766409514 937.53680085541 322.48366409514 931.50480085541 326.67566409514 926.67280085541 C 330.86766409514 921.84080085541 336.32366409514 919.42480085541 343.04366409515 919.42480085541 C 350.40366409514 919.42480085541 356.08366409515 921.79280085541 360.08366409515 926.52880085541 C 364.08366409515 931.26480085541 366.08366409515 937.28080085541 366.08366409515 944.57680085541 Z M 328.25966409515 944.67280085541 C 328.25966409515 949.72880085541 329.60366409514 954.03280085541 332.29166409514 957.58480085541 C 334.97966409515 961.13680085541 338.56366409515 962.91280085541 343.04366409515 962.91280085541 C 347.90766409514 962.91280085541 351.65166409514 961.16880085541 354.27566409515 957.68080085541 C 356.89966409515 954.19280085541 358.21166409515 949.85680085541 358.21166409515 944.67280085541 C 358.21166409515 939.29680085541 356.96366409515 934.86480085541 354.46766409515 931.37680085541 C 351.97166409515 927.88880085541 348.16366409515 926.14480085541 343.04366409515 926.14480085541 C 338.43566409514 926.14480085541 334.81966409514 927.93680085541 332.19566409514 931.52080085541 C 329.57166409514 935.10480085541 328.25966409515 939.48880085541 328.25966409515 944.67280085541 Z M 411.29966409515 955.80880085541 C 411.29966409515 959.96880085541 409.84366409514 963.26480085541 406.93166409515 965.69680085541 C 404.01966409515 968.12880085541 400.03566409515 969.34480085541 394.97966409515 969.34480085541 C 389.09166409515 969.34480085541 384.32366409515 968.35280085541 380.67566409514 966.36880085541 L 380.67566409514 958.97680085541 C 384.96366409515 961.53680085541 389.57166409515 962.81680085541 394.49966409515 962.81680085541 C 397.44366409515 962.81680085541 399.68366409515 962.24080085541 401.21966409515 961.08880085541 C 402.75566409515 959.93680085541 403.52366409515 958.36880085541 403.52366409515 956.38480085541 C 403.52366409515 954.08080085541 402.67566409514 952.28880085541 400.97966409515 951.00880085541 C 399.28366409514 949.72880085541 396.45166409515 948.28880085541 392.48366409514 946.68880085541 C 388.83566409515 945.28080085541 385.90766409515 943.52080085541 383.69966409514 941.40880085541 C 381.49166409515 939.29680085541 380.38766409514 936.44880085541 380.38766409514 932.86480085541 C 380.38766409514 928.83280085541 381.90766409515 925.61680085541 384.94766409515 923.21680085541 C 387.98766409515 920.81680085541 391.77966409515 919.61680085541 396.32366409515 919.61680085541 C 401.37966409514 919.61680085541 405.44366409515 920.32080085541 408.51566409515 921.72880085541 L 408.51566409515 928.92880085541 C 405.57166409515 927.13680085541 401.53966409515 926.24080085541 396.41966409515 926.24080085541 C 393.85966409515 926.24080085541 391.82766409515 926.83280085541 390.32366409515 928.01680085541 C 388.81966409514 929.20080085541 388.06766409515 930.72080085541 388.06766409515 932.57680085541 C 388.06766409515 933.72880085541 388.29166409514 934.73680085541 388.73966409515 935.60080085541 C 389.18766409515 936.46480085541 390.06766409515 937.31280085541 391.37966409515 938.14480085541 C 392.69166409515 938.97680085541 393.65166409514 939.53680085541 394.25966409515 939.82480085541 C 394.86766409514 940.11280085541 396.19566409515 940.70480085541 398.24366409515 941.60080085541 C 402.33966409515 943.26480085541 405.53966409515 945.15280085541 407.84366409514 947.26480085541 C 410.14766409515 949.37680085541 411.29966409515 952.22480085541 411.29966409515 955.80880085541 Z M 461.89166409514 966.27280085541 C 458.11566409514 968.25680085541 453.50766409515 969.24880085541 448.06766409514 969.24880085541 C 440.70766409515 969.24880085541 434.77166409514 966.99280085541 430.25966409514 962.48080085541 C 425.74766409514 957.96880085541 423.49166409515 952.00080085541 423.49166409515 944.57680085541 C 423.49166409515 936.83280085541 425.50766409515 930.72080085541 429.53966409515 926.24080085541 C 433.57166409515 921.76080085541 438.75566409515 919.52080085541 445.09166409514 919.52080085541 C 451.17166409515 919.52080085541 456.00366409515 921.47280085541 459.58766409515 925.37680085541 C 463.17166409515 929.28080085541 464.96366409515 934.81680085541 464.96366409515 941.98480085541 C 464.96366409515 944.03280085541 464.80366409515 945.92080085541 464.48366409515 947.64880085541 L 431.26766409515 947.64880085541 C 431.84366409514 952.44880085541 433.66766409515 956.12880085541 436.73966409515 958.68880085541 C 439.81166409515 961.24880085541 443.84366409514 962.52880085541 448.83566409515 962.52880085541 C 454.27566409515 962.52880085541 458.62766409514 961.40880085541 461.89166409514 959.16880085541 L 461.89166409514 966.27280085541 Z M 445.09166409514 926.14480085541 C 441.44366409515 926.14480085541 438.33966409515 927.45680085541 435.77966409515 930.08080085541 C 433.21966409515 932.70480085541 431.71566409515 936.44880085541 431.26766409515 941.31280085541 L 457.37966409514 941.31280085541 L 457.37966409514 939.39280085541 C 457.37966409514 935.36080085541 456.29166409515 932.14480085541 454.11566409514 929.74480085541 C 451.93966409515 927.34480085541 448.93166409515 926.14480085541 445.09166409514 926.14480085541 Z M 546.94766409515 910.88080085541 L 529.47566409515 910.88080085541 L 529.47566409515 968.76880085541 L 521.69966409514 968.76880085541 L 521.69966409514 910.88080085541 L 504.22766409515 910.88080085541 L 504.22766409515 904.06480085541 L 546.94766409515 904.06480085541 L 546.94766409515 910.88080085541 Z M 598.97966409514 968.76880085541 L 591.39566409515 968.76880085541 L 591.39566409515 937.28080085541 C 591.39566409515 933.76080085541 590.48366409515 931.04080085541 588.65966409515 929.12080085541 C 586.83566409514 927.20080085541 584.45166409514 926.24080085541 581.50766409514 926.24080085541 C 577.92366409515 926.24080085541 574.78766409514 927.61680085541 572.09966409515 930.36880085541 C 569.41166409514 933.12080085541 568.06766409514 937.05680085541 568.06766409514 942.17680085541 L 568.06766409514 968.76880085541 L 560.57966409514 968.76880085541 L 560.57966409514 900.89680085541 L 568.06766409514 900.89680085541 L 568.06766409514 928.54480085541 C 570.94766409515 922.46480085541 576.06766409514 919.42480085541 583.42766409515 919.42480085541 C 588.09966409515 919.42480085541 591.85966409515 920.86480085541 594.70766409515 923.74480085541 C 597.55566409514 926.62480085541 598.97966409514 930.52880085541 598.97966409514 935.45680085541 L 598.97966409514 968.76880085541 Z M 652.73966409515 966.27280085541 C 648.96366409515 968.25680085541 644.35566409514 969.24880085541 638.91566409515 969.24880085541 C 631.55566409514 969.24880085541 625.61966409515 966.99280085541 621.10766409515 962.48080085541 C 616.59566409514 957.96880085541 614.33966409515 952.00080085541 614.33966409515 944.57680085541 C 614.33966409515 936.83280085541 616.35566409514 930.72080085541 620.38766409515 926.24080085541 C 624.41966409515 921.76080085541 629.60366409514 919.52080085541 635.93966409515 919.52080085541 C 642.01966409515 919.52080085541 646.85166409515 921.47280085541 650.43566409514 925.37680085541 C 654.01966409515 929.28080085541 655.81166409514 934.81680085541 655.81166409514 941.98480085541 C 655.81166409514 944.03280085541 655.65166409514 945.92080085541 655.33166409515 947.64880085541 L 622.11566409514 947.64880085541 C 622.69166409514 952.44880085541 624.51566409515 956.12880085541 627.58766409515 958.68880085541 C 630.65966409515 961.24880085541 634.69166409514 962.52880085541 639.68366409515 962.52880085541 C 645.12366409514 962.52880085541 649.47566409515 961.40880085541 652.73966409515 959.16880085541 L 652.73966409515 966.27280085541 Z M 635.93966409515 926.14480085541 C 632.29166409515 926.14480085541 629.18766409515 927.45680085541 626.62766409514 930.08080085541 C 624.06766409514 932.70480085541 622.56366409515 936.44880085541 622.11566409514 941.31280085541 L 648.22766409515 941.31280085541 L 648.22766409515 939.39280085541 C 648.22766409515 935.36080085541 647.13966409515 932.14480085541 644.96366409515 929.74480085541 C 642.78766409514 927.34480085541 639.77966409515 926.14480085541 635.93966409515 926.14480085541 Z M 717.44366409515 910.78480085541 L 708.51566409515 910.78480085541 L 708.51566409515 936.60880085541 L 718.30766409515 936.60880085541 C 722.72366409515 936.60880085541 726.09966409515 935.40880085541 728.43566409515 933.00880085541 C 730.77166409515 930.60880085541 731.93966409515 927.52080085541 731.93966409515 923.74480085541 C 731.93966409515 915.10480085541 727.10766409515 910.78480085541 717.44366409515 910.78480085541 Z M 717.82766409515 943.23280085541 L 708.51566409515 943.23280085541 L 708.51566409515 968.76880085541 L 700.73966409515 968.76880085541 L 700.73966409515 904.06480085541 L 716.96366409515 904.06480085541 C 724.45166409515 904.06480085541 730.13166409515 905.82480085541 734.00366409515 909.34480085541 C 737.87566409515 912.86480085541 739.81166409514 917.72880085541 739.81166409514 923.93680085541 C 739.68366409515 928.41680085541 738.49966409515 932.22480085541 736.25966409515 935.36080085541 C 734.01966409515 938.49680085541 730.85166409515 940.70480085541 726.75566409515 941.98480085541 L 743.74766409515 968.76880085541 L 734.43566409515 968.76880085541 L 718.59566409515 943.23280085541 L 717.82766409515 943.23280085541 Z M 765.73166409515 968.76880085541 L 758.14766409515 968.76880085541 L 758.14766409515 920.09680085541 L 765.73166409515 920.09680085541 L 765.73166409515 968.76880085541 Z M 766.88366409515 904.83280085541 C 766.88366409515 906.24080085541 766.40366409515 907.40880085541 765.44366409515 908.33680085541 C 764.48366409515 909.26480085541 763.29966409515 909.72880085541 761.89166409515 909.72880085541 C 760.48366409515 909.72880085541 759.31566409515 909.26480085541 758.38766409515 908.33680085541 C 757.45966409515 907.40880085541 756.99566409515 906.24080085541 756.99566409515 904.83280085541 C 756.99566409515 903.42480085541 757.45966409515 902.24080085541 758.38766409515 901.28080085541 C 759.31566409515 900.32080085541 760.48366409515 899.84080085541 761.89166409515 899.84080085541 C 763.29966409515 899.84080085541 764.48366409515 900.32080085541 765.44366409515 901.28080085541 C 766.40366409515 902.24080085541 766.88366409515 903.42480085541 766.88366409515 904.83280085541 Z M 824.19566409515 964.83280085541 C 824.19566409515 972.25680085541 822.14766409515 977.84080085541 818.05166409515 981.58480085541 C 813.95566409515 985.32880085541 808.67566409515 987.20080085541 802.21166409515 987.20080085541 C 796.32366409515 987.20080085541 791.29966409515 986.20880085541 787.13966409515 984.22480085541 L 787.13966409515 976.64080085541 C 791.23566409515 979.00880085541 796.03566409515 980.19280085541 801.53966409515 980.19280085541 C 806.21166409515 980.19280085541 809.89166409515 978.94480085541 812.57966409515 976.44880085541 C 815.26766409515 973.95280085541 816.61166409515 970.04880085541 816.61166409515 964.73680085541 L 816.61166409515 959.26480085541 C 813.41166409515 964.76880085541 808.64366409515 967.52080085541 802.30766409515 967.52080085541 C 796.73966409515 967.52080085541 791.98766409515 965.47280085541 788.05166409515 961.37680085541 C 784.11566409515 957.28080085541 782.14766409515 951.58480085541 782.14766409515 944.28880085541 C 782.14766409515 937.05680085541 783.97166409515 931.10480085541 787.61966409515 926.43280085541 C 791.26766409515 921.76080085541 796.03566409515 919.42480085541 801.92366409515 919.42480085541 C 808.57966409515 919.42480085541 813.47566409515 922.33680085541 816.61166409515 928.16080085541 L 816.61166409515 920.09680085541 L 824.19566409515 920.09680085541 L 824.19566409515 964.83280085541 Z M 790.01966409515 944.09680085541 C 790.01966409515 949.53680085541 791.36366409515 953.68080085541 794.05166409515 956.52880085541 C 796.73966409515 959.37680085541 799.77966409515 960.80080085541 803.17166409515 960.80080085541 C 806.69166409515 960.80080085541 809.81166409514 959.44080085541 812.53166409515 956.72080085541 C 815.25166409515 954.00080085541 816.61166409515 949.95280085541 816.61166409515 944.57680085541 C 816.61166409515 938.36880085541 815.29966409515 933.76080085541 812.67566409515 930.75280085541 C 810.05166409515 927.74480085541 807.01166409515 926.24080085541 803.55566409515 926.24080085541 C 799.39566409515 926.24080085541 796.09966409515 927.88880085541 793.66766409515 931.18480085541 C 791.23566409515 934.48080085541 790.01966409515 938.78480085541 790.01966409515 944.09680085541 Z M 880.83566409514 968.76880085541 L 873.25166409515 968.76880085541 L 873.25166409515 937.28080085541 C 873.25166409515 933.76080085541 872.33966409515 931.04080085541 870.51566409515 929.12080085541 C 868.69166409515 927.20080085541 866.30766409515 926.24080085541 863.36366409515 926.24080085541 C 859.77966409515 926.24080085541 856.64366409515 927.61680085541 853.95566409515 930.36880085541 C 851.26766409515 933.12080085541 849.92366409515 937.05680085541 849.92366409515 942.17680085541 L 849.92366409515 968.76880085541 L 842.43566409515 968.76880085541 L 842.43566409515 900.89680085541 L 849.92366409515 900.89680085541 L 849.92366409515 928.54480085541 C 852.80366409515 922.46480085541 857.92366409515 919.42480085541 865.28366409515 919.42480085541 C 869.95566409515 919.42480085541 873.71566409515 920.86480085541 876.56366409515 923.74480085541 C 879.41166409515 926.62480085541 880.83566409514 930.52880085541 880.83566409514 935.45680085541 L 880.83566409514 968.76880085541 Z M 923.45966409515 967.52080085541 C 921.34766409515 968.67280085541 918.97966409515 969.24880085541 916.35566409515 969.24880085541 C 906.75566409515 969.24880085541 901.95566409515 964.35280085541 901.95566409515 954.56080085541 L 901.95566409515 926.24080085541 L 894.17966409515 926.24080085541 L 894.17966409515 920.09680085541 L 901.95566409515 920.09680085541 L 901.95566409515 908.00080085541 L 909.53966409515 908.00080085541 L 909.53966409515 920.09680085541 L 922.97966409515 920.09680085541 L 922.97966409515 926.24080085541 L 909.53966409515 926.24080085541 L 909.53966409515 954.75280085541 C 909.53966409515 959.93680085541 911.97166409515 962.52880085541 916.83566409514 962.52880085541 C 919.33166409515 962.52880085541 921.53966409515 961.79280085541 923.45966409515 960.32080085541 L 923.45966409515 967.52080085541 Z"/></svg>